<svg height="37.917" viewBox="0 0 35.216 37.917" width="35.216" xmlns="http://www.w3.org/2000/svg"><path d="m2.62 37.917a2.621 2.621 0 0 1 -2.62-2.617v-28.092a2.621 2.621 0 0 1 2.62-2.62h2.88v-1.968a2.62 2.62 0 0 1 2.622-2.62h.105a2.621 2.621 0 0 1 2.62 2.62v1.967h13.52v-1.967a2.621 2.621 0 0 1 2.621-2.62h.105a2.62 2.62 0 0 1 2.62 2.62v1.967h2.887a2.621 2.621 0 0 1 2.62 2.62v28.093a2.621 2.621 0 0 1 -2.62 2.62zm1.78-4.14h26.414v-21.277h-26.414zm18.263-4.312a.419.419 0 0 1 -.419-.419v-4.559a.419.419 0 0 1 .419-.419h4.559a.419.419 0 0 1 .419.419v4.559a.419.419 0 0 1 -.419.419zm-7.336 0a.419.419 0 0 1 -.419-.419v-4.559a.419.419 0 0 1 .419-.419h4.558a.419.419 0 0 1 .419.419v4.559a.419.419 0 0 1 -.419.419zm-7.337 0a.419.419 0 0 1 -.419-.419v-4.559a.419.419 0 0 1 .419-.419h4.559a.419.419 0 0 1 .419.419v4.559a.419.419 0 0 1 -.419.419zm14.673-7.336a.419.419 0 0 1 -.419-.419v-4.56a.419.419 0 0 1 .419-.419h4.559a.419.419 0 0 1 .419.419v4.559a.419.419 0 0 1 -.419.419zm-7.336 0a.419.419 0 0 1 -.419-.419v-4.56a.419.419 0 0 1 .419-.419h4.558a.419.419 0 0 1 .419.419v4.559a.419.419 0 0 1 -.419.419zm-7.337 0a.419.419 0 0 1 -.419-.419v-4.56a.419.419 0 0 1 .419-.419h4.559a.419.419 0 0 1 .419.419v4.559a.419.419 0 0 1 -.419.419z" fill="#7d77ff"/></svg>