<svg height="108.415" viewBox="0 0 102.327 108.415" width="102.327" xmlns="http://www.w3.org/2000/svg"><path d="m.488 84.918a1.669 1.669 0 1 1 2.36-2.359 60.036 60.036 0 0 0 73.89 8.6 23.617 23.617 0 0 1 -2.85.173 23.434 23.434 0 1 1 16.576-6.856q-.588.588-1.208 1.126a63.335 63.335 0 0 1 -88.769-.68zm59.184-31.239a20.107 20.107 0 0 0 27.282 29.5q.318-.309.632-.623a1.667 1.667 0 0 1 .332-.258l.189-.186a20.107 20.107 0 1 0 -28.435-28.433zm-52.809-1.579a23.475 23.475 0 0 1 0-33.155q.618-.618 1.272-1.183a63.326 63.326 0 0 1 88.7.739 1.669 1.669 0 0 1 -2.36 2.36 60.029 60.029 0 0 0 -73.847-8.62 23.823 23.823 0 0 1 2.807-.165 23.44 23.44 0 1 1 -16.572 40.024zm2.36-30.8a20.086 20.086 0 1 0 1.157-1.071q-.32.311-.637.627a1.666 1.666 0 0 1 -.331.257z" fill="#fff" stroke="#fff" stroke-width="5" transform="translate(2.5 2.5)"/></svg>