<svg height="228" viewBox="0 0 223.786 228" width="223.786" xmlns="http://www.w3.org/2000/svg"><g fill="#fff" transform="translate(-.295)"><path d="m25.172 79.649s1.112 2.237 2.145 2.487c7.5 1.767 40.891 9.362 50.5 3.356 5.13-3.413-13.666-19.473-13.666-19.473s22.187 10.246 25.971 6.5c13.731-22.119-21.673-58.499-30.672-67.084-2.259-2.544-3.926-.635-3.926-.635l-42.009 29.106zm38.8-41.3a6.665 6.665 0 1 1 -6.662 6.662 6.661 6.661 0 0 1 6.664-6.666z" transform="translate(80.971 25.188)"/><path d="m95.369 102.892c4.6.257 3.278-4.852 3.278-4.852l-10.581-42.009 44.923-29.4s2.993-1.981.15-3.769c-7.154-6.1-28.1-23.413-35.155-22.843-8.543.684-6.491 23.228-12.64 21.86-64.225 3.058-87.018 113.86-84.032 117.486s5.422 6.192 10.923 2.059c5.607 12.176-7.361 39.776-11.686 51.058-1.126 3.413 1.739 2.515 3.712.826 9.919-9.908 16.939-13.43 20.92-13.045s13.139 3.869 18.461 6.84c2.544 1.874 5.493 1.354 2.8-2.487-41.511-87.381 29.419-83.733 48.927-81.724z"/><path d="m75.36 24.266s-1.1-2.23-2.145-2.494c-7.481-1.772-40.876-9.355-50.488-3.363-5.127 3.413 13.659 19.466 13.659 19.466s-22.194-10.232-25.956-6.475c-13.752 22.114 21.66 58.494 30.659 67.08 2.259 2.537 3.926.634 3.926.634l42.009-29.114zm-38.8 41.3a6.673 6.673 0 1 1 6.659-6.666 6.667 6.667 0 0 1 -6.662 6.67z" transform="translate(42.874 98.876)"/><path d="m143.011 6.144c-9.918 9.911-16.95 13.431-20.926 13.046s-13.139-3.869-18.454-6.84c-2.551-1.874-5.493-1.354-2.814 2.487 41.5 87.388-29.433 83.74-48.942 81.724-4.6-.249-3.27 4.866-3.27 4.866l10.574 42.009-44.916 29.4s-2.993 1.981-.15 3.769c7.154 6.085 28.108 23.413 35.162 22.85 8.522-.705 6.477-23.249 12.626-21.86 64.225-3.078 87.018-113.858 84.025-117.5s-5.426-6.178-10.926-2.045c-5.607-12.177 7.36-39.779 11.706-51.058 1.128-3.427-1.729-2.515-3.695-.848z" transform="translate(77.118 28.526)"/></g></svg>