<svg height="264.248" viewBox="0 0 309.865 264.248" width="309.865" xmlns="http://www.w3.org/2000/svg"><path d="m21.6 0a21.6 21.6 0 0 0 -21.6 21.6v18.215a67.209 67.209 0 0 0 21.6 3.53 64.154 64.154 0 0 0 21.6-3.53v-18.215a21.6 21.6 0 0 0 -21.6-21.6z" fill="#e8ac86" transform="matrix(-1 0 0 -1 168.155 212.912)"/><path d="m136.314 61.7-5.789-2.4h-24.707s10.024 106.315-2.118 126.928c34.873 19.06 48.71-2.683 48.71-2.683-13.41-9.318-16.519-105.185-16.096-121.845z" fill="#d19527" transform="translate(92.127 24.424)"/><path d="m0 183.4c29.367 29.367 165.19 37.132 195.122 0-14.684-10.166-15.954-124.1-15.954-124.1h-166.179s15.111 93.749-12.989 124.1z" fill="#ab791d" transform="translate(49.415 35.719)"/><path d="m71.831 220.367 3.07-46.711c.219-4.167 3.29-7.456 6.8-7.456h103.947c3.509 0 6.579 3.289 6.8 7.456l3.07 46.711c.32 4.583-30.261 18.442-60.674 18.571-31.711.135-63.351-13.724-63.013-18.571z" fill="#f66179" transform="translate(12.639 25.309)"/><path d="m125.647 265.39-.219-26.316s-41.667-4.167-46.492-38.158c-5.044-33.992 28.509-40.132 28.509-40.132l-14.255-55.484s-64.475 19.3-59.65 85.527c4.606 66.01 92.107 74.563 92.107 74.563z" fill="#f66179" transform="translate(-33.283 -47.345)"/><circle cx="139.776" cy="101.514" fill="#f6c6aa" r="79.912"/><path d="m10.8 146.709c-31.733-14.916 16.58-10.113 16.58-10.113s60.85-6.989 65.674-40.981c5.046-33.991-28.511-40.132-28.511-40.132l14.257-55.483s64.475 19.3 59.65 85.527c-4.608 66.01-95.919 76.098-127.65 61.182z" fill="#f66179" transform="matrix(.966 -.259 .259 .966 136.356 84.629)"/><path d="m73.741 49.7s9.036 27.814 45.745 34.026c10.73 1.835 57.746 2.541 57.746 2.541a86.266 86.266 0 1 0 -172.532 0s18.919 4.093 48.145-10.449c12.848-6.495 20.896-26.118 20.896-26.118z" fill="#d19527" transform="translate(51.351)"/><path d="m89.7 152.4a7.514 7.514 0 0 1 -7.4-7.4v-18.4a7.515 7.515 0 0 1 7.4-7.4 7.515 7.515 0 0 1 7.4 7.4v18.4a7.383 7.383 0 0 1 -7.4 7.4z" fill="#ed9e8f" transform="translate(34.9 -8.266)"/><ellipse cx="169.955" cy="110.393" fill="#362638" rx="6.2" ry="6.2"/><path d="m98.715 103.6h-.2a1.982 1.982 0 0 0 -1.6 2.2 11.961 11.961 0 0 0 13.4 10.2 1.924 1.924 0 1 0 -.6-3.8 7.931 7.931 0 0 1 -9-6.8 1.955 1.955 0 0 0 -2-1.8z" fill="#362638" transform="translate(67.839 -16.808)"/><path d="m13.231 12.491h.2a1.982 1.982 0 0 0 1.6-2.2 11.961 11.961 0 0 0 -13.4-10.201 1.982 1.982 0 0 0 -1.6 2.2 1.982 1.982 0 0 0 2.2 1.6 7.931 7.931 0 0 1 9 6.8 2.127 2.127 0 0 0 2 1.801z" fill="#ed9e8f" transform="matrix(.5 -.8660254 .8660254 .5 141.729 158.926)"/><g fill="#362638"><ellipse cx="94.023" cy="110.39" rx="6.198" ry="6.198"/><path d="m110.111 103.6h.2a1.981 1.981 0 0 1 1.6 2.2 11.957 11.957 0 0 1 -13.4 10.2 1.923 1.923 0 1 1 .6-3.8 7.929 7.929 0 0 0 9-6.8 1.954 1.954 0 0 1 2-1.8z" transform="translate(-12.69 -16.803)"/></g></svg>