<svg height="146.766" viewBox="0 0 411.221 146.766" width="411.221" xmlns="http://www.w3.org/2000/svg"><g fill="#fff"><path d="m64.521-65.7a2.339 2.339 0 0 0 .321-.535c.107-.107.107-.214.214-.321a4.46 4.46 0 0 1 .214-.642c0-.214.214-.321.214-.642a.809.809 0 0 1 .107-.428v-.749-.428a1.59 1.59 0 0 0 -.107-.642.589.589 0 0 0 -.214-.535 3.784 3.784 0 0 1 -.107-.642.811.811 0 0 1 -.214-.428 2.339 2.339 0 0 1 -.321-.535.835.835 0 0 0 -.428-.428c-.107-.107-.214-.321-.321-.428s-.214-.321-.428-.428c-.107-.107-.107-.214-.321-.321h-.107c-.214-.107-.321-.214-.535-.321a.667.667 0 0 0 -.535-.321c-.107-.107-.321-.107-.428-.214-.214 0-.321-.107-.642-.107-.107 0-.321-.107-.428-.107h-46.973a5.8 5.8 0 0 0 -5.882 5.887 5.959 5.959 0 0 0 5.885 5.992h34.558l-39.269 53.714h-.107a2.339 2.339 0 0 1 -.321.535.573.573 0 0 1 -.321.428 4.634 4.634 0 0 1 -.107.535c-.107.214-.107.428-.214.535v.535a1.587 1.587 0 0 0 -.107.749v.428c0 .214.107.428.107.749 0 .214.107.321.107.428.107.214.107.428.214.642 0 .214.214.321.321.535 0 .107.107.214.214.535.107.107.214.321.321.428a1.477 1.477 0 0 0 .428.321 2.334 2.334 0 0 0 .428.535c.107.107.214.214.321.214v.107c.107.107.214.107.428.214a1.808 1.808 0 0 0 .535.214c.107.214.214.214.321.321.321 0 .535.107.749.107a.393.393 0 0 0 .321.107 4.014 4.014 0 0 0 1.07.107h46.118a5.892 5.892 0 0 0 5.992-5.885 5.982 5.982 0 0 0 -5.992-5.992h-34.455l39.376-53.607zm50.4-11.342a35.709 35.709 0 0 0 -26.221 11.451 39.118 39.118 0 0 0 -10.59 27.071 38.925 38.925 0 0 0 10.59 27.071 36.115 36.115 0 0 0 26.218 11.449 35.047 35.047 0 0 0 25.573-11.449 39.1 39.1 0 0 0 10.809-27.071 39.3 39.3 0 0 0 -10.807-27.071 34.65 34.65 0 0 0 -25.575-11.449zm16.903 57.142a23.18 23.18 0 0 1 -16.906 7.7 23.4 23.4 0 0 1 -17.334-7.7 26.758 26.758 0 0 1 -7.276-18.62 27.219 27.219 0 0 1 7.276-18.725 23.3 23.3 0 0 1 17.334-7.6 23.07 23.07 0 0 1 16.906 7.6 27.72 27.72 0 0 1 7.276 18.725 27.245 27.245 0 0 1 -7.276 18.62zm46.438 19.9h12.626a37.423 37.423 0 0 0 37.343-37.557 37.377 37.377 0 0 0 -37.343-37.343h-12.626a5.8 5.8 0 0 0 -5.885 5.885v63.13a5.868 5.868 0 0 0 5.885 5.885zm5.992-63.023h6.634a25.458 25.458 0 0 1 25.466 25.466 25.573 25.573 0 0 1 -25.466 25.68h-6.634zm147.018 59.278a5.759 5.759 0 0 0 5.457 3.745 5.791 5.791 0 0 0 2.033-.321 6.071 6.071 0 0 0 3.531-7.7l-23.647-63.027a5.886 5.886 0 0 0 -5.671-3.745 5.986 5.986 0 0 0 -5.671 3.745l-23.647 63.023a6.071 6.071 0 0 0 3.531 7.7 6.23 6.23 0 0 0 2.033.325 6 6 0 0 0 5.564-3.745l5.243-13.91h26zm-26.964-25.68 8.667-23 8.667 23zm87.526 29.425a40.028 40.028 0 0 0 24.717-8.346 6.316 6.316 0 0 0 1.07-8.56 6.49 6.49 0 0 0 -8.56-1.177 26.88 26.88 0 0 1 -17.227 5.883 28.321 28.321 0 0 1 -19.26-7.7 26.018 26.018 0 0 1 -7.811-18.618 26.4 26.4 0 0 1 7.811-18.618 28.321 28.321 0 0 1 19.26-7.7 26.67 26.67 0 0 1 17.227 5.885 6.268 6.268 0 0 0 8.56-1.177 6.33 6.33 0 0 0 -1.07-8.56 40.028 40.028 0 0 0 -24.717-8.346c-21.4.107-39.162 17.334-39.269 38.52.107 21.287 17.869 38.514 39.269 38.514z" transform="translate(-7.597 144.504)"/><path d="m408.613 2292.036v-97a33.576 33.576 0 0 0 -67.153 0 3.73 3.73 0 1 1 -7.461 0 41.037 41.037 0 0 1 78.346-17.092 41.037 41.037 0 0 1 78.346 17.092 3.73 3.73 0 1 1 -7.461 0 33.576 33.576 0 0 0 -67.153 0v97a3.732 3.732 0 0 1 -7.464 0z" stroke="#fff" stroke-width="5" transform="translate(-166.597 -2151.5)"/></g></svg>