<svg height="57.452" viewBox="0 0 46.735 57.452" width="46.735" xmlns="http://www.w3.org/2000/svg"><g fill="#fff" stroke="#fff" stroke-width="3"><path d="m22.706 45.412a16.731 16.731 0 1 1 16.731-16.731 16.75 16.75 0 0 1 -16.731 16.731zm0-31.707a14.975 14.975 0 1 0 14.974 14.976 14.991 14.991 0 0 0 -14.974-14.981z" transform="translate(.661 10.54)"/><path d="m20.4 18.226a11.386 11.386 0 0 1 -11.375-11.374.878.878 0 0 1 1.757 0 9.617 9.617 0 0 0 19.234 0 .878.878 0 0 1 1.757 0 11.386 11.386 0 0 1 -11.373 11.374z" transform="translate(2.969 6.019)"/><path d="m21.853 12.252a.879.879 0 0 1 -.878-.878 11.386 11.386 0 0 1 11.373-11.374.878.878 0 1 1 0 1.757 9.628 9.628 0 0 0 -9.617 9.617.876.876 0 0 1 -.878.878z" transform="translate(12.009 1.5)"/><path d="m14.423 12.252a.879.879 0 0 1 -.878-.878 9.627 9.627 0 0 0 -9.616-9.617.878.878 0 0 1 0-1.757 11.386 11.386 0 0 1 11.371 11.373.88.88 0 0 1 -.877.879z" transform="translate(-1.551 1.5)"/></g></svg>