<svg height="179.335" viewBox="0 0 223.38 179.335" width="223.38" xmlns="http://www.w3.org/2000/svg"><path d="m183.482 143.148a30.819 30.819 0 0 0 13.493-21.393 36.33 36.33 0 0 0 -17.865-70.4 8.05 8.05 0 0 0 -6.3 7.857v13.366h-13.364a8.05 8.05 0 0 0 -7.857 6.3 36.319 36.319 0 0 0 28.7 43.632 14.732 14.732 0 0 1 -10.981 9.4c-25.295-38.6-90.1-38.377-115.245 0a14.732 14.732 0 0 1 -10.981-9.4 36.319 36.319 0 0 0 28.7-43.632 8.05 8.05 0 0 0 -7.857-6.3h-13.357v-13.366a8.05 8.05 0 0 0 -6.3-7.857 36.33 36.33 0 0 0 -17.865 70.4 30.818 30.818 0 0 0 13.497 21.393 67.258 67.258 0 0 0 -28.78 17.959 8.051 8.051 0 0 0 11.8 10.958 51.388 51.388 0 0 1 22.78-13.859q-.02.7-.02 1.392a49.669 49.669 0 0 0 .744 8.578c-13.624 5.465-24.948 14.485-32.376 25.924a8.05 8.05 0 0 0 13.5 8.77c5.5-8.461 13.946-15.214 24.2-19.464a53.672 53.672 0 0 0 3.488 5.609 68.325 68.325 0 0 0 -27.845 29.253 8.05 8.05 0 1 0 14.5 6.99c4.823-10.007 13.752-18.622 24.881-24.153 25.027 19.925 64.3 20.326 89.832 0 11.128 5.531 20.058 14.146 24.881 24.153a8.05 8.05 0 1 0 14.5-6.99 68.32 68.32 0 0 0 -27.845-29.253 53.76 53.76 0 0 0 3.488-5.609c10.249 4.25 18.7 11 24.2 19.464a8.05 8.05 0 0 0 13.5-8.77c-7.428-11.436-18.755-20.455-32.381-25.919a49.671 49.671 0 0 0 .744-8.578q0-.7-.02-1.392a51.378 51.378 0 0 1 22.789 13.859 8.051 8.051 0 0 0 11.8-10.958 67.266 67.266 0 0 0 -28.778-17.964z" fill="#fff" transform="translate(0 -50.476)"/></svg>