<svg xmlns="http://www.w3.org/2000/svg" width="51.356" height="53.5" viewBox="0 0 51.356 53.5">
  <g id="Grupo_24" data-name="Grupo 24" transform="translate(-133.5 -1398)">
    <path id="Trazado_1826" data-name="Trazado 1826" d="M30.642,36.379a.814.814,0,0,1-.577-1.39l5.562-5.562a16.283,16.283,0,1,0-23.026,0,.814.814,0,1,1-1.152,1.152,17.911,17.911,0,1,1,25.33,0l-5.562,5.562A.812.812,0,0,1,30.642,36.379Z" transform="translate(137.833 1399.5)" fill="#fff" stroke="#fff" stroke-width="3"/>
    <path id="Trazado_1827" data-name="Trazado 1827" d="M28.307,37.081A9.086,9.086,0,0,1,21.88,21.568a.814.814,0,1,1,1.152,1.152,7.46,7.46,0,0,0,10.55,10.55,7.389,7.389,0,0,0,2.128-4.35.806.806,0,0,1,.909-.709.815.815,0,0,1,.709.909,9.082,9.082,0,0,1-9.021,7.96Z" transform="translate(146.02 1412.919)" fill="#fff" stroke="#fff" stroke-width="3"/>
    <path id="Trazado_1828" data-name="Trazado 1828" d="M9.7,34.517a9.039,9.039,0,1,1,6.394-2.644A9.013,9.013,0,0,1,9.7,34.517Zm0-16.451a7.412,7.412,0,1,0,5.243,2.168A7.393,7.393,0,0,0,9.7,18.067Z" transform="translate(134.341 1409.843)" fill="#fff" stroke="#fff" stroke-width="3"/>
  </g>
</svg>
