<svg height="40.442" viewBox="0 0 51.476 40.442" width="51.476" xmlns="http://www.w3.org/2000/svg"><path d="m-15775.4 1286.442a4.409 4.409 0 0 1 -3.247-1.35 4.422 4.422 0 0 1 -1.351-3.243v-22.807a15.262 15.262 0 0 0 2.9 2.5q10.4 7.063 14.277 9.909c1.089.8 1.976 1.434 2.653 1.881a16.262 16.262 0 0 0 2.717 1.378 8.228 8.228 0 0 0 3.16.7h.056a8.236 8.236 0 0 0 3.16-.7 16.339 16.339 0 0 0 2.717-1.378c.677-.448 1.563-1.077 2.653-1.881q4.882-3.534 14.3-9.909a15.9 15.9 0 0 0 2.876-2.5v22.807a4.426 4.426 0 0 1 -1.351 3.243 4.419 4.419 0 0 1 -3.248 1.35zm21.14-14.7h-.027a4.519 4.519 0 0 1 -1.437-.261 8.436 8.436 0 0 1 -1.651-.772c-.587-.345-1.081-.657-1.493-.935s-.931-.641-1.553-1.093-1.029-.74-1.22-.875q-2.613-1.836-7.524-5.243t-5.889-4.091a14.284 14.284 0 0 1 -3.362-3.319 6.7 6.7 0 0 1 -1.58-3.921 5.8 5.8 0 0 1 1.191-3.734 4.109 4.109 0 0 1 3.406-1.493h42.279a4.433 4.433 0 0 1 3.231 1.35 4.393 4.393 0 0 1 1.367 3.243 7.6 7.6 0 0 1 -1.41 4.34 13.609 13.609 0 0 1 -3.5 3.533q-10.806 7.5-13.445 9.334c-.189.135-.6.428-1.22.875s-1.141.816-1.552 1.093-.907.59-1.493.935a8.7 8.7 0 0 1 -1.651.772 4.523 4.523 0 0 1 -1.437.261z" fill="#fff" transform="translate(15780 -1246)"/></svg>