<svg height="54.546" viewBox="0 0 39.602 54.546" width="39.602" xmlns="http://www.w3.org/2000/svg"><path d="m66.364 27.327v-8.772a19.412 19.412 0 0 0 -4.706-13.345 16.016 16.016 0 0 0 -23.643 0 19.461 19.461 0 0 0 -4.778 13.345v8.772a4.639 4.639 0 0 0 -3.237 4.304v18.431a4.555 4.555 0 0 0 4.566 4.483h30.634a4.413 4.413 0 0 0 4.4-4.483v-18.431a4.342 4.342 0 0 0 -3.236-4.304zm-16.664 16.841a3.321 3.321 0 1 1 3.321-3.321 3.321 3.321 0 0 1 -3.321 3.321zm10.44-17.019h-20.675v-8.594c0-7.259 4.25-12.329 10.336-12.329s10.336 5.074 10.336 12.329z" fill="#fff" transform="translate(-30)"/></svg>