<svg height="54.087" viewBox="0 0 44.298 54.087" width="44.298" xmlns="http://www.w3.org/2000/svg"><path d="m47.182 18.7c0-1.2-.153-11.688-5.454-11.688-1.863 0-3.088 1.3-3.9 3.029v-.69c.004-3.234-1.462-9.351-7.009-9.351-3.455 0-5.325 2.373-6.246 4.943-.93-2.57-2.8-4.943-6.221-4.943-3.513 0-5.387 2.5-6.29 5.152a6.42 6.42 0 0 0 -6.178-4.373v1.559c5.373 0 5.454 6.728 5.454 7.014v31.167h1.562v-31.161c0-.319.136-7.8 5.455-7.8s5.451 7.48 5.454 7.8v31.161h1.558v-31.168c0-.078.062-7.792 5.454-7.792 5.377 0 5.454 7.475 5.454 7.792v31.168c0 .1.012.186.015.281a17.009 17.009 0 0 1 -10.924 3.616v1.558a18.482 18.482 0 0 0 11.111-3.4 15.176 15.176 0 0 0 4.754 7.895l1-1.2c-.041-.034-3.87-3.276-4.346-7.829 8.715-7.693 9.291-22.521 9.297-22.74zm-9.351 0c0-2.628.716-10.13 3.9-10.13s3.894 7.5 3.9 10.107a41.917 41.917 0 0 1 -2.878 13.009 23.815 23.815 0 0 1 -4.914 7.74z" fill="#fff" stroke="#fff" stroke-width="3" transform="translate(-4.384 1.5)"/></svg>